<svg xmlns="http://www.w3.org/2000/svg" xmlns:xlink="http://www.w3.org/1999/xlink" width="500" zoomAndPan="magnify" viewBox="0 0 375 374.999991" height="500" preserveAspectRatio="xMidYMid meet" version="1.0"><defs><g/><clipPath id="6bdb4f90d3"><path d="M 126 71 L 374 71 L 374 225 L 126 225 Z M 126 71 " clip-rule="nonzero"/></clipPath><clipPath id="b8da50f21c"><path d="M 208.226562 17.933594 L 373.46875 93.019531 L 281.628906 295.132812 L 116.386719 220.046875 Z M 208.226562 17.933594 " clip-rule="nonzero"/></clipPath><clipPath id="565d0008c8"><path d="M 208.226562 17.933594 L 373.46875 93.019531 L 281.628906 295.132812 L 116.386719 220.046875 Z M 208.226562 17.933594 " clip-rule="nonzero"/></clipPath><clipPath id="cf92330c68"><path d="M 208.226562 17.933594 L 373.46875 93.019531 L 281.628906 295.132812 L 116.386719 220.046875 Z M 208.226562 17.933594 " clip-rule="nonzero"/></clipPath><clipPath id="5e946a39d5"><path d="M 66 0.160156 L 131 0.160156 L 131 107 L 66 107 Z M 66 0.160156 " clip-rule="nonzero"/></clipPath><clipPath id="586f672199"><path d="M 253 108 L 303 108 L 303 190.238281 L 253 190.238281 Z M 253 108 " clip-rule="nonzero"/></clipPath><clipPath id="c0608768cc"><rect x="0" width="305" y="0" height="191"/></clipPath></defs><g clip-path="url(#6bdb4f90d3)"><g clip-path="url(#b8da50f21c)"><g clip-path="url(#565d0008c8)"><g clip-path="url(#cf92330c68)"><path fill="#000000" d="M 373.238281 92.933594 C 372.707031 94.109375 372.53125 95.078125 371.960938 95.65625 C 367.863281 99.785156 363.433594 103.605469 359.59375 107.953125 C 353.214844 115.164062 348.015625 123.242188 343.632812 131.820312 C 337.316406 144.179688 329.34375 155.019531 316.957031 162.042969 C 310.804688 165.53125 304.152344 167.003906 297.226562 167.582031 C 288.9375 168.277344 280.851562 169.628906 273.300781 173.441406 C 267.277344 176.480469 261.964844 180.535156 257.960938 185.769531 C 249.015625 197.453125 236.804688 200.566406 223.066406 200.199219 C 219.65625 200.109375 216.238281 199.644531 212.863281 199.109375 C 206.667969 198.125 200.558594 198.730469 194.402344 199.535156 C 188.453125 200.3125 182.460938 200.8125 176.476562 201.277344 C 162.492188 202.363281 149.230469 205.59375 138.042969 214.570312 C 134.867188 217.117188 132.265625 220.363281 129.316406 223.207031 C 128.613281 223.882812 127.585938 224.226562 126.707031 224.722656 C 126.984375 223.796875 127.199219 222.851562 127.554688 221.960938 C 129.578125 216.914062 132.527344 212.210938 132.5 206.464844 C 132.453125 195.902344 135.03125 185.746094 137.761719 175.660156 C 139.539062 169.097656 143.351562 163.550781 147.472656 158.214844 C 153.292969 150.683594 157.679688 142.402344 161.035156 133.460938 C 171.300781 106.125 188.691406 85.589844 217.222656 76.070312 C 231.347656 71.359375 245.792969 70.519531 260.5 72.597656 C 274.128906 74.523438 287.429688 77.671875 300.523438 81.917969 C 320.570312 88.417969 340.9375 93.449219 362.203125 93.535156 C 365.035156 93.546875 367.867188 93.234375 370.699219 93.074219 C 371.289062 93.039062 371.878906 93.007812 373.238281 92.933594 Z M 151.140625 198.300781 C 151.304688 198.417969 151.46875 198.53125 151.632812 198.644531 C 152.09375 198.308594 152.570312 197.984375 153.019531 197.628906 C 163.03125 189.824219 172.976562 181.925781 183.101562 174.261719 C 185.828125 172.199219 187.886719 169.910156 188.933594 166.6875 C 189.570312 164.726562 190.363281 162.808594 190.878906 160.816406 C 194.636719 146.386719 198.296875 131.933594 202.074219 117.511719 C 204.972656 106.441406 210.152344 96.546875 217.847656 88.039062 C 219.101562 86.652344 220.660156 85.542969 222.609375 83.847656 C 222.476562 84.988281 222.527344 85.28125 222.40625 85.445312 C 221.847656 86.195312 221.28125 86.945312 220.648438 87.636719 C 211.5625 97.558594 205.859375 109.1875 202.738281 122.238281 C 199.910156 134.070312 196.75 145.824219 193.683594 157.597656 C 192.757812 161.15625 191.652344 164.671875 190.613281 168.25 C 199.296875 162.710938 207.796875 157.355469 216.210938 151.863281 C 217.957031 150.726562 219.722656 149.328125 220.875 147.636719 C 223.429688 143.886719 225.875 140.007812 227.871094 135.941406 C 231.402344 128.742188 234.511719 121.339844 237.925781 114.078125 C 239.089844 111.597656 240.460938 109.175781 242.035156 106.933594 C 246.265625 100.910156 250.640625 94.984375 254.996094 89.050781 C 256.433594 87.09375 257.984375 85.222656 259.480469 83.3125 C 259.820312 83.5625 260.160156 83.816406 260.5 84.066406 C 258.082031 87.636719 255.808594 91.316406 253.210938 94.753906 C 247.777344 101.949219 242.308594 109.078125 238.546875 117.375 C 234.746094 125.773438 230.699219 134.0625 226.710938 142.375 C 225.953125 143.949219 224.972656 145.410156 224.097656 146.921875 C 224.25 147.183594 224.40625 147.441406 224.558594 147.703125 C 224.792969 147.425781 224.972656 147.046875 225.269531 146.894531 C 235.066406 141.835938 244.871094 136.789062 254.691406 131.773438 C 258.113281 130.019531 261.792969 128.78125 264.515625 125.785156 C 268.78125 121.097656 272.988281 116.3125 277.660156 112.050781 C 285.511719 104.886719 293.703125 98.089844 301.777344 91.167969 C 302.441406 90.597656 303.285156 90.238281 304.042969 89.78125 C 304.277344 90.0625 304.511719 90.34375 304.746094 90.625 C 293.125 102.652344 278.359375 111.484375 268.03125 125.734375 C 272.855469 123.558594 277.066406 121.390625 281.46875 119.722656 C 290.664062 116.230469 300.683594 115.085938 309.300781 109.9375 C 311.507812 108.621094 313.910156 107.589844 315.984375 106.09375 C 319.878906 103.285156 323.566406 100.191406 327.414062 97.316406 C 328.148438 96.765625 329.222656 96.660156 330.140625 96.351562 C 330.265625 96.660156 330.390625 96.96875 330.515625 97.277344 C 325.171875 101.457031 319.832031 105.632812 314.488281 109.808594 C 314.585938 110.050781 314.683594 110.289062 314.777344 110.527344 C 330.410156 106.378906 346.039062 102.214844 361.683594 98.113281 C 362.980469 97.773438 364.390625 97.859375 365.75 97.75 C 365.804688 98 365.859375 98.257812 365.917969 98.511719 C 366.929688 97.558594 367.941406 96.605469 368.503906 96.078125 C 359.152344 95.296875 349.566406 94.882812 340.089844 93.625 C 323.179688 91.375 307.015625 85.996094 290.765625 81.003906 C 277.703125 76.988281 264.304688 74.351562 250.648438 73.65625 C 226.097656 72.410156 204.464844 79.871094 186.410156 96.679688 C 174.691406 107.589844 167.527344 121.535156 162.015625 136.304688 C 158.996094 144.394531 154.53125 151.53125 149.710938 158.566406 C 146.570312 163.152344 142.867188 167.636719 141.015625 172.746094 C 138.351562 180.105469 136.796875 187.929688 135.417969 195.671875 C 134.207031 202.472656 133.890625 209.433594 133.246094 215.671875 C 136.746094 212.332031 140.941406 208.445312 144.992188 204.410156 C 146.523438 202.878906 148.070312 201.171875 148.988281 199.25 C 151.078125 194.855469 153.019531 190.359375 154.601562 185.761719 C 157.871094 176.273438 160.753906 166.65625 164.011719 157.164062 C 166.523438 149.847656 168.894531 142.425781 172.1875 135.460938 C 175.292969 128.894531 179.5 122.84375 183.285156 116.601562 C 183.933594 115.527344 184.875 114.621094 185.683594 113.636719 C 185.886719 113.78125 186.089844 113.921875 186.292969 114.0625 C 185.15625 116.246094 184.082031 118.460938 182.867188 120.601562 C 179.769531 126.054688 175.921875 131.203125 173.625 136.972656 C 169.46875 147.40625 166.238281 158.210938 162.59375 168.847656 C 160.503906 174.9375 158.484375 181.054688 156.195312 187.070312 C 154.734375 190.898438 152.839844 194.5625 151.140625 198.300781 Z M 364.667969 99.738281 C 340.4375 105.867188 315.761719 112.113281 291.082031 118.355469 C 291.148438 118.601562 291.210938 118.847656 291.277344 119.09375 C 313.5625 120.722656 335.113281 124.238281 337.945312 127.222656 C 334.917969 126.804688 332.523438 126.46875 330.128906 126.148438 C 317.742188 124.488281 305.371094 122.671875 292.953125 121.285156 C 289.363281 120.882812 285.421875 121.054688 282.019531 122.140625 C 276.125 124.019531 270.507812 126.773438 264.816406 129.257812 C 260.707031 131.046875 257.488281 134.722656 252.636719 134.972656 C 252.246094 134.992188 251.878906 135.410156 251.503906 135.644531 C 252.492188 135.925781 253.320312 135.828125 254.152344 135.746094 C 261.929688 134.988281 269.707031 133.632812 277.488281 133.597656 C 294.742188 133.523438 311.089844 138.960938 327.65625 142.953125 C 328.457031 143.148438 329.09375 144.039062 330.207031 144.921875 C 329.234375 145.019531 328.960938 145.117188 328.726562 145.0625 C 323.964844 143.957031 319.136719 143.066406 314.460938 141.671875 C 293.175781 135.34375 271.695312 133.496094 249.871094 138.402344 C 246.773438 139.101562 243.539062 139.628906 240.707031 140.957031 C 235.097656 143.585938 229.6875 146.644531 224.273438 149.667969 C 221.824219 151.039062 219.644531 152.890625 217.207031 154.292969 C 211.839844 157.371094 206.386719 160.308594 200.96875 163.300781 C 201.113281 163.585938 201.253906 163.875 201.394531 164.160156 C 201.816406 163.960938 202.246094 163.773438 202.65625 163.554688 C 213.570312 157.789062 225.328125 154.949219 237.519531 153.804688 C 259.925781 151.707031 282.253906 153.175781 304.542969 155.644531 C 305.265625 155.726562 305.960938 156.058594 306.667969 156.277344 C 306.644531 156.589844 306.617188 156.902344 306.589844 157.21875 C 304.21875 157.183594 301.824219 157.347656 299.480469 157.082031 C 281.714844 155.050781 263.902344 154.363281 246.046875 155.085938 C 234.289062 155.5625 222.632812 157.117188 211.695312 161.609375 C 199.40625 166.660156 187.761719 172.972656 177.453125 181.535156 C 175.019531 183.554688 172.160156 185.058594 169.605469 186.945312 C 165.742188 189.796875 161.96875 192.78125 158.160156 195.707031 C 162.664062 193.753906 166.835938 191.25 171.296875 189.496094 C 196.304688 179.667969 222.386719 176.769531 249.058594 178.015625 C 250 178.058594 250.925781 178.425781 251.863281 178.644531 C 251.859375 178.894531 251.855469 179.144531 251.851562 179.398438 C 250.640625 179.554688 249.425781 179.835938 248.210938 179.847656 C 245.898438 179.863281 243.582031 179.6875 241.265625 179.65625 C 219.933594 179.371094 199.035156 182.160156 178.6875 188.65625 C 167.980469 192.078125 158.695312 198.261719 149.1875 203.992188 C 148.425781 204.453125 147.859375 205.234375 147.203125 205.867188 C 148.398438 205.9375 149.25 205.519531 150.128906 205.183594 C 158.628906 201.9375 167.351562 199.78125 176.496094 199.300781 C 182.414062 198.988281 188.328125 198.398438 194.199219 197.59375 C 201.128906 196.644531 207.941406 196.496094 214.941406 197.457031 C 220.832031 198.265625 226.945312 198.1875 232.890625 197.683594 C 241.570312 196.945312 248.992188 193.40625 254.734375 186.445312 C 259.429688 180.753906 264.796875 175.714844 271.460938 172.195312 C 279.730469 167.828125 288.652344 166.226562 297.824219 165.550781 C 314.894531 164.289062 326.828125 154.890625 335.859375 141.226562 C 339.355469 135.933594 341.914062 130.023438 345.296875 124.648438 C 351.03125 115.527344 356.929688 106.484375 364.667969 99.738281 Z M 364.667969 99.738281 " fill-opacity="1" fill-rule="evenodd"/></g></g></g></g><g transform="matrix(1, 0, 0, 1, 0, 170)"><g clip-path="url(#c0608768cc)"><g fill="#000000" fill-opacity="1"><g transform="translate(1.495178, 66.487941)"><g/></g></g><g fill="#000000" fill-opacity="1"><g transform="translate(22.377986, 66.487941)"><g/></g></g><g fill="#000000" fill-opacity="1"><g transform="translate(43.260795, 66.487941)"><g/></g></g><g clip-path="url(#5e946a39d5)"><g fill="#000000" fill-opacity="1"><g transform="translate(64.148822, 66.487941)"><g><path d="M 66.46875 -15.578125 C 66.695312 -15.265625 66.773438 -14.9375 66.703125 -14.59375 C 66.640625 -14.25 66.445312 -13.96875 66.125 -13.75 C 59.09375 -8.707031 52.675781 -3.941406 46.875 0.546875 C 47.46875 2.398438 47.535156 4.441406 47.078125 6.671875 C 46.347656 10.523438 45.039062 14.117188 43.15625 17.453125 C 41.28125 20.785156 39.082031 23.820312 36.5625 26.5625 C 34.050781 29.3125 31.421875 31.671875 28.671875 33.640625 C 25.929688 35.609375 23.3125 37.148438 20.8125 38.265625 C 18.320312 39.378906 16.171875 40.003906 14.359375 40.140625 C 14.085938 40.179688 13.835938 40.203125 13.609375 40.203125 C 12.203125 40.203125 11.203125 39.914062 10.609375 39.34375 C 10.023438 38.78125 9.640625 38.25 9.453125 37.75 C 8.410156 34.894531 10.847656 30.191406 16.765625 23.640625 C 22.679688 17.085938 31.648438 9.117188 43.671875 -0.265625 C 42.179688 -2.941406 39.175781 -5.414062 34.65625 -7.6875 C 30.144531 -9.957031 24.171875 -12.585938 16.734375 -15.578125 C 15.867188 -15.941406 14.984375 -16.304688 14.078125 -16.671875 C 13.171875 -17.035156 12.242188 -17.421875 11.296875 -17.828125 C 8.023438 -19.179688 5.753906 -21.015625 4.484375 -23.328125 C 3.210938 -25.640625 3.054688 -28.296875 4.015625 -31.296875 C 4.742188 -33.609375 6.015625 -35.960938 7.828125 -38.359375 C 9.640625 -40.765625 11.835938 -43.160156 14.421875 -45.546875 C 17.003906 -47.929688 19.816406 -50.195312 22.859375 -52.34375 C 25.898438 -54.5 29.003906 -56.460938 32.171875 -58.234375 C 35.347656 -60.003906 38.457031 -61.5 41.5 -62.71875 C 44.539062 -63.945312 47.34375 -64.8125 49.90625 -65.3125 C 52.46875 -65.8125 54.628906 -65.859375 56.390625 -65.453125 C 57.117188 -65.265625 57.925781 -64.921875 58.8125 -64.421875 C 59.695312 -63.921875 60.398438 -63.113281 60.921875 -62 C 61.441406 -60.894531 61.585938 -59.367188 61.359375 -57.421875 C 61.273438 -57.054688 61.09375 -56.769531 60.8125 -56.5625 C 60.539062 -56.363281 60.226562 -56.285156 59.875 -56.328125 C 59.507812 -56.367188 59.210938 -56.535156 58.984375 -56.828125 C 58.753906 -57.128906 58.664062 -57.460938 58.71875 -57.828125 C 58.988281 -59.734375 58.78125 -61.003906 58.09375 -61.640625 C 57.414062 -62.273438 56.671875 -62.679688 55.859375 -62.859375 C 54.128906 -63.265625 51.847656 -63.128906 49.015625 -62.453125 C 46.179688 -61.773438 43.015625 -60.628906 39.515625 -59.015625 C 36.023438 -57.410156 32.445312 -55.425781 28.78125 -53.0625 C 24.875 -50.613281 21.367188 -48.0625 18.265625 -45.40625 C 15.160156 -42.757812 12.597656 -40.164062 10.578125 -37.625 C 8.554688 -35.082031 7.207031 -32.722656 6.53125 -30.546875 C 5.03125 -25.867188 6.957031 -22.421875 12.3125 -20.203125 C 13.269531 -19.835938 14.1875 -19.472656 15.0625 -19.109375 C 15.945312 -18.753906 16.84375 -18.394531 17.75 -18.03125 C 22.332031 -16.164062 26.492188 -14.40625 30.234375 -12.75 C 33.984375 -11.09375 37.179688 -9.40625 39.828125 -7.6875 C 42.484375 -5.96875 44.46875 -4.039062 45.78125 -1.90625 C 51.5 -6.351562 57.78125 -11 64.625 -15.84375 C 64.945312 -16.070312 65.273438 -16.148438 65.609375 -16.078125 C 65.953125 -16.015625 66.238281 -15.847656 66.46875 -15.578125 Z M 44.5625 6.125 C 44.832031 4.757812 44.851562 3.488281 44.625 2.3125 C 34.96875 9.882812 27.304688 16.550781 21.640625 22.3125 C 18.328125 25.71875 15.785156 28.742188 14.015625 31.390625 C 12.242188 34.046875 11.539062 35.875 11.90625 36.875 C 12.039062 37.238281 12.359375 37.453125 12.859375 37.515625 C 13.359375 37.585938 13.789062 37.597656 14.15625 37.546875 C 15.644531 37.460938 17.523438 36.894531 19.796875 35.84375 C 22.066406 34.800781 24.46875 33.363281 27 31.53125 C 29.539062 29.695312 32.015625 27.507812 34.421875 24.96875 C 36.828125 22.425781 38.9375 19.566406 40.75 16.390625 C 42.5625 13.222656 43.832031 9.800781 44.5625 6.125 Z M 44.5625 6.125 "/></g></g></g></g><g fill="#000000" fill-opacity="1"><g transform="translate(127.953631, 66.487941)"><g><path d="M 27.140625 -14.6875 C 27.410156 -14.507812 27.59375 -14.238281 27.6875 -13.875 C 27.78125 -13.507812 27.734375 -13.191406 27.546875 -12.921875 C 27.191406 -12.335938 26.613281 -11.429688 25.8125 -10.203125 C 25.019531 -8.984375 24.066406 -7.632812 22.953125 -6.15625 C 21.847656 -4.6875 20.671875 -3.257812 19.421875 -1.875 C 18.171875 -0.488281 16.929688 0.65625 15.703125 1.5625 C 14.484375 2.46875 13.351562 2.921875 12.3125 2.921875 C 11.945312 2.921875 11.628906 2.851562 11.359375 2.71875 C 10.222656 2.3125 9.507812 1.269531 9.21875 -0.40625 C 8.925781 -2.082031 9.03125 -4.507812 9.53125 -7.6875 C 8.9375 -6.914062 8.296875 -6.117188 7.609375 -5.296875 C 6.929688 -4.484375 6.207031 -3.738281 5.4375 -3.0625 C 4.257812 -2.0625 3.257812 -1.648438 2.4375 -1.828125 C 1.625 -2.015625 1.082031 -2.242188 0.8125 -2.515625 C 0 -3.191406 -0.503906 -4.222656 -0.703125 -5.609375 C -0.910156 -6.992188 -0.84375 -8.535156 -0.5 -10.234375 C -0.164062 -11.941406 0.453125 -13.585938 1.359375 -15.171875 C 1.535156 -15.484375 1.804688 -15.6875 2.171875 -15.78125 C 2.535156 -15.875 2.878906 -15.828125 3.203125 -15.640625 C 3.515625 -15.460938 3.71875 -15.203125 3.8125 -14.859375 C 3.90625 -14.523438 3.859375 -14.195312 3.671875 -13.875 C 2.859375 -12.519531 2.3125 -11.171875 2.03125 -9.828125 C 1.757812 -8.492188 1.679688 -7.347656 1.796875 -6.390625 C 1.910156 -5.441406 2.128906 -4.832031 2.453125 -4.5625 C 2.628906 -4.425781 2.863281 -4.457031 3.15625 -4.65625 C 3.457031 -4.863281 3.648438 -4.988281 3.734375 -5.03125 C 4.597656 -5.800781 5.414062 -6.6875 6.1875 -7.6875 C 6.957031 -8.6875 7.613281 -9.59375 8.15625 -10.40625 C 8.882812 -11.40625 9.488281 -12.140625 9.96875 -12.609375 C 10.445312 -13.085938 11.003906 -13.191406 11.640625 -12.921875 C 12.265625 -12.691406 12.578125 -12.191406 12.578125 -11.421875 C 12.578125 -10.648438 12.46875 -9.609375 12.25 -8.296875 C 11.789062 -5.671875 11.582031 -3.753906 11.625 -2.546875 C 11.675781 -1.347656 11.789062 -0.578125 11.96875 -0.234375 C 12.15625 0.0976562 12.269531 0.265625 12.3125 0.265625 C 12.851562 0.492188 14.347656 -0.578125 16.796875 -2.953125 C 19.253906 -5.335938 22.09375 -9.113281 25.3125 -14.28125 C 25.488281 -14.601562 25.757812 -14.796875 26.125 -14.859375 C 26.488281 -14.929688 26.828125 -14.875 27.140625 -14.6875 Z M 27.140625 -14.6875 "/></g></g></g><g fill="#000000" fill-opacity="1"><g transform="translate(152.305569, 66.487941)"><g><path d="M 38.375 -15.234375 C 38.644531 -15.015625 38.789062 -14.722656 38.8125 -14.359375 C 38.832031 -13.992188 38.726562 -13.675781 38.5 -13.40625 C 32.738281 -6.644531 28.179688 -3.898438 24.828125 -5.171875 C 22.421875 -6.078125 21.128906 -8.957031 20.953125 -13.8125 C 20.453125 -12.90625 19.914062 -11.875 19.34375 -10.71875 C 18.78125 -9.5625 18.316406 -8.617188 17.953125 -7.890625 C 17.679688 -7.210938 17.410156 -6.597656 17.140625 -6.046875 C 16.867188 -5.503906 16.617188 -5.050781 16.390625 -4.6875 C 16.253906 -4.414062 16.015625 -4.019531 15.671875 -3.5 C 15.335938 -2.976562 14.910156 -2.523438 14.390625 -2.140625 C 13.867188 -1.753906 13.265625 -1.65625 12.578125 -1.84375 C 11.765625 -2.0625 11.15625 -2.660156 10.75 -3.640625 C 10.34375 -4.617188 10.09375 -5.6875 10 -6.84375 C 9.90625 -8 9.859375 -8.9375 9.859375 -9.65625 C 9.859375 -10.25 9.859375 -10.816406 9.859375 -11.359375 C 9.859375 -11.898438 9.882812 -12.398438 9.9375 -12.859375 C 8.34375 -10.585938 6.820312 -8.238281 5.375 -5.8125 C 3.925781 -3.382812 2.382812 -0.609375 0.75 2.515625 C 0.207031 3.554688 -0.378906 4.078125 -1.015625 4.078125 C -1.242188 4.078125 -1.445312 4.007812 -1.625 3.875 C -1.851562 3.78125 -2.054688 3.628906 -2.234375 3.421875 C -2.421875 3.222656 -2.523438 2.816406 -2.546875 2.203125 C -2.566406 1.597656 -2.472656 0.660156 -2.265625 -0.609375 C -2.066406 -1.878906 -1.675781 -3.648438 -1.09375 -5.921875 C -0.40625 -8.679688 0.398438 -11.421875 1.328125 -14.140625 C 2.253906 -16.867188 3.195312 -19.320312 4.15625 -21.5 C 4.289062 -21.863281 4.523438 -22.113281 4.859375 -22.25 C 5.203125 -22.382812 5.53125 -22.359375 5.84375 -22.171875 C 6.207031 -22.035156 6.445312 -21.796875 6.5625 -21.453125 C 6.675781 -21.117188 6.664062 -20.796875 6.53125 -20.484375 C 5.300781 -17.617188 4.195312 -14.632812 3.21875 -11.53125 C 2.25 -8.425781 1.492188 -5.71875 0.953125 -3.40625 C 2.359375 -5.894531 3.738281 -8.21875 5.09375 -10.375 C 6.457031 -12.53125 7.890625 -14.628906 9.390625 -16.671875 C 9.523438 -16.847656 9.757812 -17.09375 10.09375 -17.40625 C 10.4375 -17.726562 10.90625 -17.800781 11.5 -17.625 C 12.082031 -17.394531 12.40625 -16.960938 12.46875 -16.328125 C 12.539062 -15.691406 12.554688 -14.625 12.515625 -13.125 C 12.515625 -12.625 12.503906 -12.078125 12.484375 -11.484375 C 12.460938 -10.898438 12.453125 -10.289062 12.453125 -9.65625 C 12.453125 -8.300781 12.539062 -7.191406 12.71875 -6.328125 C 12.90625 -5.460938 13.066406 -4.875 13.203125 -4.5625 C 13.285156 -4.644531 13.40625 -4.800781 13.5625 -5.03125 C 13.726562 -5.257812 13.925781 -5.554688 14.15625 -5.921875 C 14.332031 -6.234375 14.546875 -6.660156 14.796875 -7.203125 C 15.046875 -7.753906 15.328125 -8.347656 15.640625 -8.984375 C 16.828125 -11.523438 17.789062 -13.472656 18.53125 -14.828125 C 19.28125 -16.191406 19.925781 -17.125 20.46875 -17.625 C 21.019531 -18.125 21.585938 -18.304688 22.171875 -18.171875 C 22.898438 -17.984375 23.320312 -17.535156 23.4375 -16.828125 C 23.550781 -16.128906 23.609375 -15.578125 23.609375 -15.171875 C 23.554688 -13.035156 23.722656 -11.3125 24.109375 -10 C 24.503906 -8.6875 25.0625 -7.894531 25.78125 -7.625 C 26.601562 -7.300781 27.910156 -7.660156 29.703125 -8.703125 C 31.492188 -9.742188 33.769531 -11.878906 36.53125 -15.109375 C 36.757812 -15.378906 37.054688 -15.523438 37.421875 -15.546875 C 37.785156 -15.566406 38.101562 -15.460938 38.375 -15.234375 Z M 38.375 -15.234375 "/></g></g></g><g fill="#000000" fill-opacity="1"><g transform="translate(187.745122, 66.487941)"><g><path d="M 38.375 -15.234375 C 38.644531 -15.015625 38.789062 -14.722656 38.8125 -14.359375 C 38.832031 -13.992188 38.726562 -13.675781 38.5 -13.40625 C 32.738281 -6.644531 28.179688 -3.898438 24.828125 -5.171875 C 22.421875 -6.078125 21.128906 -8.957031 20.953125 -13.8125 C 20.453125 -12.90625 19.914062 -11.875 19.34375 -10.71875 C 18.78125 -9.5625 18.316406 -8.617188 17.953125 -7.890625 C 17.679688 -7.210938 17.410156 -6.597656 17.140625 -6.046875 C 16.867188 -5.503906 16.617188 -5.050781 16.390625 -4.6875 C 16.253906 -4.414062 16.015625 -4.019531 15.671875 -3.5 C 15.335938 -2.976562 14.910156 -2.523438 14.390625 -2.140625 C 13.867188 -1.753906 13.265625 -1.65625 12.578125 -1.84375 C 11.765625 -2.0625 11.15625 -2.660156 10.75 -3.640625 C 10.34375 -4.617188 10.09375 -5.6875 10 -6.84375 C 9.90625 -8 9.859375 -8.9375 9.859375 -9.65625 C 9.859375 -10.25 9.859375 -10.816406 9.859375 -11.359375 C 9.859375 -11.898438 9.882812 -12.398438 9.9375 -12.859375 C 8.34375 -10.585938 6.820312 -8.238281 5.375 -5.8125 C 3.925781 -3.382812 2.382812 -0.609375 0.75 2.515625 C 0.207031 3.554688 -0.378906 4.078125 -1.015625 4.078125 C -1.242188 4.078125 -1.445312 4.007812 -1.625 3.875 C -1.851562 3.78125 -2.054688 3.628906 -2.234375 3.421875 C -2.421875 3.222656 -2.523438 2.816406 -2.546875 2.203125 C -2.566406 1.597656 -2.472656 0.660156 -2.265625 -0.609375 C -2.066406 -1.878906 -1.675781 -3.648438 -1.09375 -5.921875 C -0.40625 -8.679688 0.398438 -11.421875 1.328125 -14.140625 C 2.253906 -16.867188 3.195312 -19.320312 4.15625 -21.5 C 4.289062 -21.863281 4.523438 -22.113281 4.859375 -22.25 C 5.203125 -22.382812 5.53125 -22.359375 5.84375 -22.171875 C 6.207031 -22.035156 6.445312 -21.796875 6.5625 -21.453125 C 6.675781 -21.117188 6.664062 -20.796875 6.53125 -20.484375 C 5.300781 -17.617188 4.195312 -14.632812 3.21875 -11.53125 C 2.25 -8.425781 1.492188 -5.71875 0.953125 -3.40625 C 2.359375 -5.894531 3.738281 -8.21875 5.09375 -10.375 C 6.457031 -12.53125 7.890625 -14.628906 9.390625 -16.671875 C 9.523438 -16.847656 9.757812 -17.09375 10.09375 -17.40625 C 10.4375 -17.726562 10.90625 -17.800781 11.5 -17.625 C 12.082031 -17.394531 12.40625 -16.960938 12.46875 -16.328125 C 12.539062 -15.691406 12.554688 -14.625 12.515625 -13.125 C 12.515625 -12.625 12.503906 -12.078125 12.484375 -11.484375 C 12.460938 -10.898438 12.453125 -10.289062 12.453125 -9.65625 C 12.453125 -8.300781 12.539062 -7.191406 12.71875 -6.328125 C 12.90625 -5.460938 13.066406 -4.875 13.203125 -4.5625 C 13.285156 -4.644531 13.40625 -4.800781 13.5625 -5.03125 C 13.726562 -5.257812 13.925781 -5.554688 14.15625 -5.921875 C 14.332031 -6.234375 14.546875 -6.660156 14.796875 -7.203125 C 15.046875 -7.753906 15.328125 -8.347656 15.640625 -8.984375 C 16.828125 -11.523438 17.789062 -13.472656 18.53125 -14.828125 C 19.28125 -16.191406 19.925781 -17.125 20.46875 -17.625 C 21.019531 -18.125 21.585938 -18.304688 22.171875 -18.171875 C 22.898438 -17.984375 23.320312 -17.535156 23.4375 -16.828125 C 23.550781 -16.128906 23.609375 -15.578125 23.609375 -15.171875 C 23.554688 -13.035156 23.722656 -11.3125 24.109375 -10 C 24.503906 -8.6875 25.0625 -7.894531 25.78125 -7.625 C 26.601562 -7.300781 27.910156 -7.660156 29.703125 -8.703125 C 31.492188 -9.742188 33.769531 -11.878906 36.53125 -15.109375 C 36.757812 -15.378906 37.054688 -15.523438 37.421875 -15.546875 C 37.785156 -15.566406 38.101562 -15.460938 38.375 -15.234375 Z M 38.375 -15.234375 "/></g></g></g><g fill="#000000" fill-opacity="1"><g transform="translate(223.184674, 66.487941)"><g><path d="M 23 -15.171875 C 23.3125 -14.992188 23.488281 -14.722656 23.53125 -14.359375 C 23.582031 -13.992188 23.515625 -13.675781 23.328125 -13.40625 C 20.660156 -9.6875 18.210938 -6.613281 15.984375 -4.1875 C 13.765625 -1.757812 11.539062 0.25 9.3125 1.84375 C 7.632812 3.019531 5.984375 3.609375 4.359375 3.609375 C 3.085938 3.609375 1.972656 3.265625 1.015625 2.578125 C 0.378906 2.128906 -0.238281 1.328125 -0.84375 0.171875 C -1.457031 -0.984375 -1.785156 -2.660156 -1.828125 -4.859375 C -1.878906 -7.054688 -1.335938 -9.945312 -0.203125 -13.53125 C -0.203125 -13.53125 -0.203125 -13.554688 -0.203125 -13.609375 C 1.160156 -17.960938 2.757812 -21.285156 4.59375 -23.578125 C 6.425781 -25.867188 8 -27.035156 9.3125 -27.078125 C 10.363281 -27.117188 11.046875 -26.664062 11.359375 -25.71875 C 11.859375 -24.40625 11.269531 -22.535156 9.59375 -20.109375 C 7.914062 -17.679688 5.441406 -15.101562 2.171875 -12.375 C 1.179688 -9.207031 0.707031 -6.726562 0.75 -4.9375 C 0.789062 -3.144531 1.035156 -1.847656 1.484375 -1.046875 C 1.941406 -0.253906 2.304688 0.25 2.578125 0.46875 C 3.941406 1.46875 5.691406 1.195312 7.828125 -0.34375 C 9.910156 -1.789062 12.015625 -3.679688 14.140625 -6.015625 C 16.273438 -8.359375 18.613281 -11.320312 21.15625 -14.90625 C 21.382812 -15.175781 21.679688 -15.34375 22.046875 -15.40625 C 22.410156 -15.476562 22.726562 -15.398438 23 -15.171875 Z M 8.84375 -24.21875 C 8.34375 -23.90625 7.660156 -23.238281 6.796875 -22.21875 C 5.941406 -21.195312 5.0625 -19.707031 4.15625 -17.75 C 5.78125 -19.34375 6.929688 -20.691406 7.609375 -21.796875 C 8.296875 -22.910156 8.707031 -23.71875 8.84375 -24.21875 Z M 8.84375 -24.21875 "/></g></g></g><g fill="#000000" fill-opacity="1"><g transform="translate(242.979128, 66.487941)"><g><path d="M 29.859375 -15.4375 C 30.179688 -15.257812 30.410156 -15 30.546875 -14.65625 C 30.679688 -14.320312 30.660156 -13.992188 30.484375 -13.671875 C 29.617188 -11.816406 28.5625 -9.734375 27.3125 -7.421875 C 26.0625 -5.109375 24.734375 -2.78125 23.328125 -0.4375 C 21.921875 1.894531 20.492188 4.023438 19.046875 5.953125 C 17.597656 7.878906 16.191406 9.441406 14.828125 10.640625 C 13.472656 11.847656 12.25 12.453125 11.15625 12.453125 C 10.84375 12.453125 10.546875 12.382812 10.265625 12.25 C 9.316406 11.882812 8.691406 11.019531 8.390625 9.65625 C 8.097656 8.300781 8.132812 6.351562 8.5 3.8125 C 9.132812 -0.769531 10.8125 -7.253906 13.53125 -15.640625 C 13.488281 -15.640625 13.457031 -15.628906 13.4375 -15.609375 C 13.414062 -15.585938 13.378906 -15.578125 13.328125 -15.578125 C 12.421875 -14.941406 11.332031 -14.28125 10.0625 -13.59375 C 8.789062 -12.914062 7.472656 -12.460938 6.109375 -12.234375 C 4.753906 -12.015625 3.46875 -12.3125 2.25 -13.125 C 0.519531 -14.351562 -0.363281 -16.054688 -0.40625 -18.234375 C -0.445312 -20.410156 0.367188 -22.789062 2.046875 -25.375 C 2.585938 -26.1875 3.300781 -27.09375 4.1875 -28.09375 C 5.070312 -29.09375 6 -29.863281 6.96875 -30.40625 C 7.945312 -30.945312 8.820312 -30.972656 9.59375 -30.484375 C 10 -30.253906 10.300781 -29.863281 10.5 -29.3125 C 10.707031 -28.769531 10.695312 -27.929688 10.46875 -26.796875 C 10.25 -25.671875 9.707031 -24.15625 8.84375 -22.25 C 7.976562 -20.34375 6.6875 -17.867188 4.96875 -14.828125 C 6.007812 -14.691406 7.175781 -14.984375 8.46875 -15.703125 C 9.757812 -16.429688 10.90625 -17.113281 11.90625 -17.75 C 12.851562 -18.382812 13.644531 -18.847656 14.28125 -19.140625 C 14.914062 -19.441406 15.507812 -19.390625 16.0625 -18.984375 C 16.550781 -18.578125 16.75 -18.078125 16.65625 -17.484375 C 16.570312 -16.890625 16.484375 -16.4375 16.390625 -16.125 C 14.898438 -11.40625 13.742188 -7.476562 12.921875 -4.34375 C 12.109375 -1.21875 11.550781 1.296875 11.25 3.203125 C 10.957031 5.109375 10.8125 6.535156 10.8125 7.484375 C 10.8125 8.429688 10.878906 9.050781 11.015625 9.34375 C 11.148438 9.644531 11.21875 9.816406 11.21875 9.859375 C 11.769531 9.953125 12.894531 9.078125 14.59375 7.234375 C 16.289062 5.398438 18.316406 2.640625 20.671875 -1.046875 C 23.035156 -4.742188 25.507812 -9.316406 28.09375 -14.765625 C 28.28125 -15.128906 28.539062 -15.363281 28.875 -15.46875 C 29.21875 -15.582031 29.546875 -15.570312 29.859375 -15.4375 Z M 2.453125 -20.0625 C 2.179688 -19.113281 2.097656 -18.332031 2.203125 -17.71875 C 2.316406 -17.101562 2.488281 -16.617188 2.71875 -16.265625 C 4.164062 -18.796875 5.265625 -20.851562 6.015625 -22.4375 C 6.765625 -24.03125 7.273438 -25.257812 7.546875 -26.125 C 7.816406 -26.988281 7.976562 -27.597656 8.03125 -27.953125 C 7.53125 -27.679688 6.90625 -27.160156 6.15625 -26.390625 C 5.40625 -25.617188 4.675781 -24.6875 3.96875 -23.59375 C 3.269531 -22.507812 2.765625 -21.332031 2.453125 -20.0625 Z M 2.453125 -20.0625 "/></g></g></g><g fill="#000000" fill-opacity="1"><g transform="translate(270.119995, 66.487941)"><g><path d="M 30.28125 -15.578125 C 30.550781 -15.347656 30.707031 -15.050781 30.75 -14.6875 C 30.789062 -14.332031 30.675781 -14.019531 30.40625 -13.75 C 29.09375 -12.195312 27.640625 -10.488281 26.046875 -8.625 C 24.460938 -6.769531 22.910156 -4.957031 21.390625 -3.1875 C 19.867188 -1.425781 18.5625 0.0976562 17.46875 1.390625 C 16.382812 2.679688 15.664062 3.554688 15.3125 4.015625 C 14.539062 5.015625 13.789062 5.988281 13.0625 6.9375 C 13.65625 9.570312 13.710938 12.054688 13.234375 14.390625 C 12.753906 16.722656 11.957031 18.796875 10.84375 20.609375 C 9.738281 22.421875 8.570312 23.828125 7.34375 24.828125 C 6.070312 25.921875 4.894531 26.46875 3.8125 26.46875 C 3.132812 26.46875 2.566406 26.238281 2.109375 25.78125 C 1.335938 25.0625 1.078125 23.984375 1.328125 22.546875 C 1.578125 21.117188 2.15625 19.5 3.0625 17.6875 C 3.96875 15.875 5.054688 13.988281 6.328125 12.03125 C 7.597656 10.082031 8.890625 8.203125 10.203125 6.390625 C 9.972656 5.578125 9.65625 4.75 9.25 3.90625 C 8.84375 3.070312 8.367188 2.222656 7.828125 1.359375 C 5.960938 -1.453125 4.382812 -4.09375 3.09375 -6.5625 C 1.800781 -9.03125 1.203125 -11.285156 1.296875 -13.328125 C 1.515625 -17.097656 3.191406 -19.910156 6.328125 -21.765625 C 7.597656 -22.535156 8.9375 -22.988281 10.34375 -23.125 C 11.75 -23.257812 13.039062 -23.054688 14.21875 -22.515625 C 14.53125 -22.335938 14.742188 -22.078125 14.859375 -21.734375 C 14.972656 -21.390625 14.960938 -21.0625 14.828125 -20.75 C 14.648438 -20.425781 14.390625 -20.207031 14.046875 -20.09375 C 13.703125 -19.988281 13.375 -20.003906 13.0625 -20.140625 C 11.425781 -20.910156 9.632812 -20.707031 7.6875 -19.53125 C 5.332031 -18.125 4.085938 -16.015625 3.953125 -13.203125 C 3.859375 -11.523438 4.421875 -9.550781 5.640625 -7.28125 C 6.867188 -5.007812 8.320312 -2.628906 10 -0.140625 C 10.863281 1.179688 11.566406 2.519531 12.109375 3.875 C 12.472656 3.425781 12.859375 2.925781 13.265625 2.375 C 13.628906 1.925781 14.363281 1.046875 15.46875 -0.265625 C 16.582031 -1.585938 17.890625 -3.128906 19.390625 -4.890625 C 20.890625 -6.660156 22.441406 -8.472656 24.046875 -10.328125 C 25.660156 -12.191406 27.125 -13.894531 28.4375 -15.4375 C 28.664062 -15.707031 28.957031 -15.863281 29.3125 -15.90625 C 29.675781 -15.957031 30 -15.847656 30.28125 -15.578125 Z M 8.15625 20 C 8.476562 19.5 8.863281 18.785156 9.3125 17.859375 C 9.769531 16.929688 10.164062 15.796875 10.5 14.453125 C 10.84375 13.117188 10.945312 11.632812 10.8125 10 C 8.726562 12.945312 7.175781 15.394531 6.15625 17.34375 C 5.132812 19.289062 4.472656 20.773438 4.171875 21.796875 C 3.878906 22.816406 3.78125 23.488281 3.875 23.8125 C 4.195312 23.8125 4.765625 23.515625 5.578125 22.921875 C 6.390625 22.335938 7.25 21.363281 8.15625 20 Z M 8.15625 20 "/></g></g></g><g fill="#000000" fill-opacity="1"><g transform="translate(0.0750507, 134.911051)"><g><path d="M 72.859375 -65.65625 C 73.222656 -65.65625 73.53125 -65.53125 73.78125 -65.28125 C 74.03125 -65.03125 74.15625 -64.722656 74.15625 -64.359375 C 74.15625 -63.992188 74.03125 -63.6875 73.78125 -63.4375 C 73.53125 -63.1875 73.222656 -63.0625 72.859375 -63.0625 C 69.367188 -63.019531 65.378906 -62.738281 60.890625 -62.21875 C 56.398438 -61.695312 51.757812 -61.015625 46.96875 -60.171875 C 42.1875 -59.335938 37.570312 -58.351562 33.125 -57.21875 C 32.445312 -54.351562 31.664062 -51.207031 30.78125 -47.78125 C 29.894531 -44.363281 28.953125 -40.796875 27.953125 -37.078125 C 27.273438 -34.359375 26.550781 -31.535156 25.78125 -28.609375 C 25.007812 -25.679688 24.257812 -22.742188 23.53125 -19.796875 C 26.664062 -20.609375 29.816406 -21.390625 32.984375 -22.140625 C 36.160156 -22.890625 39.144531 -23.546875 41.9375 -24.109375 C 44.726562 -24.679688 47.132812 -25.113281 49.15625 -25.40625 C 51.175781 -25.707031 52.59375 -25.832031 53.40625 -25.78125 C 53.769531 -25.738281 54.0625 -25.59375 54.28125 -25.34375 C 54.507812 -25.09375 54.625 -24.785156 54.625 -24.421875 C 54.582031 -24.054688 54.4375 -23.75 54.1875 -23.5 C 53.9375 -23.25 53.628906 -23.125 53.265625 -23.125 C 52.359375 -23.21875 50.632812 -23.046875 48.09375 -22.609375 C 45.550781 -22.179688 42.507812 -21.59375 38.96875 -20.84375 C 35.4375 -20.101562 31.695312 -19.234375 27.75 -18.234375 C 26.03125 -17.773438 24.378906 -17.34375 22.796875 -16.9375 C 21.609375 -12.132812 20.515625 -7.472656 19.515625 -2.953125 C 18.523438 1.554688 17.710938 5.726562 17.078125 9.5625 C 16.441406 13.394531 16.101562 16.625 16.0625 19.25 C 16.0625 20.34375 16.160156 21.441406 16.359375 22.546875 C 16.566406 23.660156 17.03125 24.378906 17.75 24.703125 C 18.613281 25.054688 19.757812 24.914062 21.1875 24.28125 C 22.613281 23.644531 24.210938 22.671875 25.984375 21.359375 C 27.753906 20.046875 29.566406 18.570312 31.421875 16.9375 C 33.285156 15.300781 35.085938 13.644531 36.828125 11.96875 C 38.578125 10.289062 40.132812 8.796875 41.5 7.484375 C 41.863281 7.117188 42.222656 6.765625 42.578125 6.421875 C 42.941406 6.085938 43.285156 5.738281 43.609375 5.375 L 44.765625 4.28125 C 45.441406 3.644531 46.097656 3.019531 46.734375 2.40625 C 47.367188 1.800781 47.9375 1.269531 48.4375 0.8125 C 49.113281 0.175781 49.75 -0.332031 50.34375 -0.71875 C 50.9375 -1.101562 51.476562 -1.046875 51.96875 -0.546875 C 52.5625 -0.046875 52.628906 0.609375 52.171875 1.421875 C 51.722656 2.242188 50.84375 3.539062 49.53125 5.3125 C 49.300781 5.625 49.003906 5.800781 48.640625 5.84375 C 48.273438 5.894531 47.957031 5.804688 47.6875 5.578125 C 47.59375 5.535156 47.503906 5.46875 47.421875 5.375 C 47.285156 5.507812 47.148438 5.644531 47.015625 5.78125 C 46.878906 5.914062 46.738281 6.050781 46.59375 6.1875 L 45.4375 7.28125 C 45.125 7.59375 44.785156 7.929688 44.421875 8.296875 C 44.054688 8.660156 43.695312 9 43.34375 9.3125 C 39.9375 12.625 36.710938 15.648438 33.671875 18.390625 C 30.640625 21.140625 27.84375 23.34375 25.28125 25 C 22.71875 26.65625 20.503906 27.484375 18.640625 27.484375 C 17.910156 27.484375 17.273438 27.347656 16.734375 27.078125 C 14.460938 26.117188 13.375 23.507812 13.46875 19.25 C 13.507812 16.570312 13.828125 13.382812 14.421875 9.6875 C 15.015625 6 15.785156 1.957031 16.734375 -2.4375 C 17.691406 -6.84375 18.734375 -11.40625 19.859375 -16.125 C 15.191406 -14.8125 11.566406 -13.664062 8.984375 -12.6875 C 6.398438 -11.707031 4.859375 -10.992188 4.359375 -10.546875 C 4.128906 -10.316406 3.832031 -10.203125 3.46875 -10.203125 C 3.101562 -10.203125 2.785156 -10.335938 2.515625 -10.609375 C 2.285156 -10.835938 2.171875 -11.132812 2.171875 -11.5 C 2.171875 -11.863281 2.304688 -12.179688 2.578125 -12.453125 C 3.128906 -12.992188 4.273438 -13.625 6.015625 -14.34375 C 7.765625 -15.070312 9.910156 -15.832031 12.453125 -16.625 C 14.992188 -17.425781 17.710938 -18.234375 20.609375 -19.046875 C 21.378906 -22.179688 22.179688 -25.320312 23.015625 -28.46875 C 23.859375 -31.625 24.664062 -34.71875 25.4375 -37.75 C 26.34375 -41.15625 27.203125 -44.445312 28.015625 -47.625 C 28.835938 -50.800781 29.59375 -53.75 30.28125 -56.46875 C 26.28125 -55.375 22.632812 -54.226562 19.34375 -53.03125 C 16.0625 -51.832031 13.375 -50.597656 11.28125 -49.328125 C 9.195312 -48.054688 7.976562 -46.785156 7.625 -45.515625 C 7.53125 -45.328125 7.523438 -44.914062 7.609375 -44.28125 C 7.703125 -43.65625 8.453125 -42.863281 9.859375 -41.90625 C 10.128906 -41.675781 10.300781 -41.390625 10.375 -41.046875 C 10.445312 -40.710938 10.390625 -40.390625 10.203125 -40.078125 C 9.929688 -39.710938 9.566406 -39.53125 9.109375 -39.53125 C 8.835938 -39.53125 8.59375 -39.597656 8.375 -39.734375 C 6.550781 -40.953125 5.492188 -42.140625 5.203125 -43.296875 C 4.910156 -44.453125 4.878906 -45.441406 5.109375 -46.265625 C 5.554688 -47.710938 6.609375 -49.070312 8.265625 -50.34375 C 9.921875 -51.613281 11.984375 -52.789062 14.453125 -53.875 C 16.929688 -54.96875 19.597656 -55.976562 22.453125 -56.90625 C 25.304688 -57.832031 28.140625 -58.660156 30.953125 -59.390625 C 31.222656 -60.523438 31.453125 -61.5 31.640625 -62.3125 C 31.679688 -62.675781 31.859375 -62.945312 32.171875 -63.125 C 32.492188 -63.3125 32.8125 -63.382812 33.125 -63.34375 C 33.488281 -63.25 33.769531 -63.050781 33.96875 -62.75 C 34.175781 -62.457031 34.238281 -62.128906 34.15625 -61.765625 C 34.0625 -61.316406 33.945312 -60.753906 33.8125 -60.078125 C 38.207031 -61.160156 42.773438 -62.109375 47.515625 -62.921875 C 52.253906 -63.742188 56.8125 -64.390625 61.1875 -64.859375 C 65.570312 -65.335938 69.460938 -65.601562 72.859375 -65.65625 Z M 72.859375 -65.65625 "/></g></g></g><g fill="#000000" fill-opacity="1"><g transform="translate(57.757861, 134.911051)"><g><path d="M 22.515625 -15.4375 C 22.785156 -15.257812 22.96875 -14.988281 23.0625 -14.625 C 23.15625 -14.257812 23.085938 -13.941406 22.859375 -13.671875 C 20.679688 -10.316406 18.523438 -7.207031 16.390625 -4.34375 C 14.265625 -1.488281 12.164062 0.816406 10.09375 2.578125 C 8.03125 4.347656 6.023438 5.234375 4.078125 5.234375 C 3.671875 5.234375 3.265625 5.191406 2.859375 5.109375 C 1.222656 4.742188 -0.0234375 3.789062 -0.890625 2.25 C -1.566406 1.019531 -1.960938 -0.394531 -2.078125 -2 C -2.191406 -3.613281 -2.109375 -5.257812 -1.828125 -6.9375 C -1.554688 -8.613281 -1.148438 -10.179688 -0.609375 -11.640625 C 0.296875 -14.128906 1.4375 -16.050781 2.8125 -17.40625 C 4.195312 -18.769531 5.503906 -19.25 6.734375 -18.84375 C 6.960938 -18.800781 7.289062 -18.597656 7.71875 -18.234375 C 8.15625 -17.867188 8.484375 -17.253906 8.703125 -16.390625 C 8.929688 -15.535156 8.820312 -14.289062 8.375 -12.65625 C 8.28125 -12.289062 8.082031 -12.015625 7.78125 -11.828125 C 7.488281 -11.648438 7.160156 -11.609375 6.796875 -11.703125 C 6.441406 -11.796875 6.171875 -12 5.984375 -12.3125 C 5.804688 -12.632812 5.757812 -12.953125 5.84375 -13.265625 C 6.125 -14.359375 6.226562 -15.140625 6.15625 -15.609375 C 6.09375 -16.085938 6.015625 -16.347656 5.921875 -16.390625 C 5.734375 -16.390625 5.207031 -16.015625 4.34375 -15.265625 C 3.488281 -14.523438 2.65625 -13 1.84375 -10.6875 C 1.019531 -8.550781 0.570312 -6.382812 0.5 -4.1875 C 0.4375 -1.988281 0.742188 -0.273438 1.421875 0.953125 C 1.878906 1.816406 2.539062 2.335938 3.40625 2.515625 C 4.625 2.785156 6.003906 2.363281 7.546875 1.25 C 9.085938 0.144531 10.640625 -1.347656 12.203125 -3.234375 C 13.773438 -5.117188 15.296875 -7.125 16.765625 -9.25 C 18.242188 -11.382812 19.550781 -13.335938 20.6875 -15.109375 C 20.863281 -15.378906 21.132812 -15.554688 21.5 -15.640625 C 21.863281 -15.734375 22.203125 -15.664062 22.515625 -15.4375 Z M 22.515625 -15.4375 "/></g></g></g><g fill="#000000" fill-opacity="1"><g transform="translate(77.892426, 134.911051)"><g><path d="M 24.625 -14.828125 C 24.945312 -14.597656 25.128906 -14.300781 25.171875 -13.9375 C 25.210938 -13.582031 25.125 -13.269531 24.90625 -13 C 23.71875 -11.5 22.34375 -10.160156 20.78125 -8.984375 C 19.21875 -7.804688 17.582031 -6.929688 15.875 -6.359375 C 14.175781 -5.796875 12.535156 -5.695312 10.953125 -6.0625 C 10.316406 -4.46875 9.421875 -3.238281 8.265625 -2.375 C 7.109375 -1.519531 5.941406 -1.09375 4.765625 -1.09375 C 4.765625 -1.09375 4.75 -1.09375 4.71875 -1.09375 C 4.695312 -1.09375 4.6875 -1.09375 4.6875 -1.09375 C 3.46875 -1.132812 2.390625 -1.550781 1.453125 -2.34375 C 0.523438 -3.132812 -0.113281 -4.234375 -0.46875 -5.640625 C -0.882812 -7.234375 -0.953125 -8.742188 -0.671875 -10.171875 C -0.398438 -11.597656 0.09375 -12.851562 0.8125 -13.9375 C 1.539062 -15.03125 2.359375 -15.875 3.265625 -16.46875 C 3.578125 -16.6875 3.941406 -16.726562 4.359375 -16.59375 C 4.765625 -17.59375 5.34375 -18.363281 6.09375 -18.90625 C 6.84375 -19.457031 7.625 -19.664062 8.4375 -19.53125 C 8.9375 -19.4375 9.476562 -19.128906 10.0625 -18.609375 C 10.65625 -18.085938 11.132812 -17.15625 11.5 -15.8125 C 11.863281 -14.476562 11.976562 -12.519531 11.84375 -9.9375 C 11.789062 -9.476562 11.722656 -9.023438 11.640625 -8.578125 C 12.859375 -8.347656 14.144531 -8.484375 15.5 -8.984375 C 16.863281 -9.484375 18.179688 -10.242188 19.453125 -11.265625 C 20.722656 -12.285156 21.835938 -13.40625 22.796875 -14.625 C 23.015625 -14.894531 23.304688 -15.050781 23.671875 -15.09375 C 24.035156 -15.144531 24.351562 -15.054688 24.625 -14.828125 Z M 4.765625 -3.734375 C 5.347656 -3.734375 6.003906 -4.003906 6.734375 -4.546875 C 7.460938 -5.097656 8.050781 -5.914062 8.5 -7 C 6.875 -7.914062 5.707031 -8.960938 5 -10.140625 C 4.300781 -11.316406 3.925781 -12.492188 3.875 -13.671875 C 2.925781 -12.765625 2.300781 -11.609375 2 -10.203125 C 1.707031 -8.796875 1.722656 -7.523438 2.046875 -6.390625 C 2.179688 -5.890625 2.453125 -5.320312 2.859375 -4.6875 C 3.265625 -4.050781 3.898438 -3.734375 4.765625 -3.734375 Z M 9.1875 -10.0625 C 9.269531 -11.882812 9.234375 -13.289062 9.078125 -14.28125 C 8.921875 -15.28125 8.726562 -15.960938 8.5 -16.328125 C 8.269531 -16.691406 8.113281 -16.894531 8.03125 -16.9375 C 7.976562 -16.9375 7.953125 -16.9375 7.953125 -16.9375 C 7.816406 -16.9375 7.613281 -16.800781 7.34375 -16.53125 C 7.070312 -16.257812 6.847656 -15.851562 6.671875 -15.3125 C 6.398438 -14.445312 6.421875 -13.503906 6.734375 -12.484375 C 7.054688 -11.460938 7.875 -10.519531 9.1875 -9.65625 C 9.1875 -9.789062 9.1875 -9.925781 9.1875 -10.0625 Z M 9.1875 -10.0625 "/></g></g></g><g fill="#000000" fill-opacity="1"><g transform="translate(99.659524, 134.911051)"><g><path d="M 66.46875 -15.578125 C 66.695312 -15.265625 66.773438 -14.9375 66.703125 -14.59375 C 66.640625 -14.25 66.445312 -13.96875 66.125 -13.75 C 59.09375 -8.707031 52.675781 -3.941406 46.875 0.546875 C 47.46875 2.398438 47.535156 4.441406 47.078125 6.671875 C 46.347656 10.523438 45.039062 14.117188 43.15625 17.453125 C 41.28125 20.785156 39.082031 23.820312 36.5625 26.5625 C 34.050781 29.3125 31.421875 31.671875 28.671875 33.640625 C 25.929688 35.609375 23.3125 37.148438 20.8125 38.265625 C 18.320312 39.378906 16.171875 40.003906 14.359375 40.140625 C 14.085938 40.179688 13.835938 40.203125 13.609375 40.203125 C 12.203125 40.203125 11.203125 39.914062 10.609375 39.34375 C 10.023438 38.78125 9.640625 38.25 9.453125 37.75 C 8.410156 34.894531 10.847656 30.191406 16.765625 23.640625 C 22.679688 17.085938 31.648438 9.117188 43.671875 -0.265625 C 42.179688 -2.941406 39.175781 -5.414062 34.65625 -7.6875 C 30.144531 -9.957031 24.171875 -12.585938 16.734375 -15.578125 C 15.867188 -15.941406 14.984375 -16.304688 14.078125 -16.671875 C 13.171875 -17.035156 12.242188 -17.421875 11.296875 -17.828125 C 8.023438 -19.179688 5.753906 -21.015625 4.484375 -23.328125 C 3.210938 -25.640625 3.054688 -28.296875 4.015625 -31.296875 C 4.742188 -33.609375 6.015625 -35.960938 7.828125 -38.359375 C 9.640625 -40.765625 11.835938 -43.160156 14.421875 -45.546875 C 17.003906 -47.929688 19.816406 -50.195312 22.859375 -52.34375 C 25.898438 -54.5 29.003906 -56.460938 32.171875 -58.234375 C 35.347656 -60.003906 38.457031 -61.5 41.5 -62.71875 C 44.539062 -63.945312 47.34375 -64.8125 49.90625 -65.3125 C 52.46875 -65.8125 54.628906 -65.859375 56.390625 -65.453125 C 57.117188 -65.265625 57.925781 -64.921875 58.8125 -64.421875 C 59.695312 -63.921875 60.398438 -63.113281 60.921875 -62 C 61.441406 -60.894531 61.585938 -59.367188 61.359375 -57.421875 C 61.273438 -57.054688 61.09375 -56.769531 60.8125 -56.5625 C 60.539062 -56.363281 60.226562 -56.285156 59.875 -56.328125 C 59.507812 -56.367188 59.210938 -56.535156 58.984375 -56.828125 C 58.753906 -57.128906 58.664062 -57.460938 58.71875 -57.828125 C 58.988281 -59.734375 58.78125 -61.003906 58.09375 -61.640625 C 57.414062 -62.273438 56.671875 -62.679688 55.859375 -62.859375 C 54.128906 -63.265625 51.847656 -63.128906 49.015625 -62.453125 C 46.179688 -61.773438 43.015625 -60.628906 39.515625 -59.015625 C 36.023438 -57.410156 32.445312 -55.425781 28.78125 -53.0625 C 24.875 -50.613281 21.367188 -48.0625 18.265625 -45.40625 C 15.160156 -42.757812 12.597656 -40.164062 10.578125 -37.625 C 8.554688 -35.082031 7.207031 -32.722656 6.53125 -30.546875 C 5.03125 -25.867188 6.957031 -22.421875 12.3125 -20.203125 C 13.269531 -19.835938 14.1875 -19.472656 15.0625 -19.109375 C 15.945312 -18.753906 16.84375 -18.394531 17.75 -18.03125 C 22.332031 -16.164062 26.492188 -14.40625 30.234375 -12.75 C 33.984375 -11.09375 37.179688 -9.40625 39.828125 -7.6875 C 42.484375 -5.96875 44.46875 -4.039062 45.78125 -1.90625 C 51.5 -6.351562 57.78125 -11 64.625 -15.84375 C 64.945312 -16.070312 65.273438 -16.148438 65.609375 -16.078125 C 65.953125 -16.015625 66.238281 -15.847656 66.46875 -15.578125 Z M 44.5625 6.125 C 44.832031 4.757812 44.851562 3.488281 44.625 2.3125 C 34.96875 9.882812 27.304688 16.550781 21.640625 22.3125 C 18.328125 25.71875 15.785156 28.742188 14.015625 31.390625 C 12.242188 34.046875 11.539062 35.875 11.90625 36.875 C 12.039062 37.238281 12.359375 37.453125 12.859375 37.515625 C 13.359375 37.585938 13.789062 37.597656 14.15625 37.546875 C 15.644531 37.460938 17.523438 36.894531 19.796875 35.84375 C 22.066406 34.800781 24.46875 33.363281 27 31.53125 C 29.539062 29.695312 32.015625 27.507812 34.421875 24.96875 C 36.828125 22.425781 38.9375 19.566406 40.75 16.390625 C 42.5625 13.222656 43.832031 9.800781 44.5625 6.125 Z M 44.5625 6.125 "/></g></g></g><g fill="#000000" fill-opacity="1"><g transform="translate(163.464333, 134.911051)"><g><path d="M 22.515625 -15.4375 C 22.785156 -15.257812 22.96875 -14.988281 23.0625 -14.625 C 23.15625 -14.257812 23.085938 -13.941406 22.859375 -13.671875 C 20.679688 -10.316406 18.523438 -7.207031 16.390625 -4.34375 C 14.265625 -1.488281 12.164062 0.816406 10.09375 2.578125 C 8.03125 4.347656 6.023438 5.234375 4.078125 5.234375 C 3.671875 5.234375 3.265625 5.191406 2.859375 5.109375 C 1.222656 4.742188 -0.0234375 3.789062 -0.890625 2.25 C -1.566406 1.019531 -1.960938 -0.394531 -2.078125 -2 C -2.191406 -3.613281 -2.109375 -5.257812 -1.828125 -6.9375 C -1.554688 -8.613281 -1.148438 -10.179688 -0.609375 -11.640625 C 0.296875 -14.128906 1.4375 -16.050781 2.8125 -17.40625 C 4.195312 -18.769531 5.503906 -19.25 6.734375 -18.84375 C 6.960938 -18.800781 7.289062 -18.597656 7.71875 -18.234375 C 8.15625 -17.867188 8.484375 -17.253906 8.703125 -16.390625 C 8.929688 -15.535156 8.820312 -14.289062 8.375 -12.65625 C 8.28125 -12.289062 8.082031 -12.015625 7.78125 -11.828125 C 7.488281 -11.648438 7.160156 -11.609375 6.796875 -11.703125 C 6.441406 -11.796875 6.171875 -12 5.984375 -12.3125 C 5.804688 -12.632812 5.757812 -12.953125 5.84375 -13.265625 C 6.125 -14.359375 6.226562 -15.140625 6.15625 -15.609375 C 6.09375 -16.085938 6.015625 -16.347656 5.921875 -16.390625 C 5.734375 -16.390625 5.207031 -16.015625 4.34375 -15.265625 C 3.488281 -14.523438 2.65625 -13 1.84375 -10.6875 C 1.019531 -8.550781 0.570312 -6.382812 0.5 -4.1875 C 0.4375 -1.988281 0.742188 -0.273438 1.421875 0.953125 C 1.878906 1.816406 2.539062 2.335938 3.40625 2.515625 C 4.625 2.785156 6.003906 2.363281 7.546875 1.25 C 9.085938 0.144531 10.640625 -1.347656 12.203125 -3.234375 C 13.773438 -5.117188 15.296875 -7.125 16.765625 -9.25 C 18.242188 -11.382812 19.550781 -13.335938 20.6875 -15.109375 C 20.863281 -15.378906 21.132812 -15.554688 21.5 -15.640625 C 21.863281 -15.734375 22.203125 -15.664062 22.515625 -15.4375 Z M 22.515625 -15.4375 "/></g></g></g><g fill="#000000" fill-opacity="1"><g transform="translate(183.598898, 134.911051)"><g><path d="M 14.5625 -25.234375 C 15.914062 -24.828125 16.816406 -23.75 17.265625 -22 C 17.722656 -20.257812 17.660156 -18.234375 17.078125 -15.921875 C 16.398438 -13.421875 15.253906 -11.238281 13.640625 -9.375 C 12.023438 -7.519531 10.492188 -6.003906 9.046875 -4.828125 C 7.273438 -3.378906 5.328125 -2.109375 3.203125 -1.015625 C 2.472656 1.835938 1.722656 5.019531 0.953125 8.53125 C 0.179688 12.050781 -0.585938 15.660156 -1.359375 19.359375 C -2.128906 23.054688 -2.851562 26.660156 -3.53125 30.171875 C -4.21875 33.679688 -4.84375 36.921875 -5.40625 39.890625 C -5.976562 42.867188 -6.421875 45.351562 -6.734375 47.34375 C -6.867188 48.070312 -7.300781 48.4375 -8.03125 48.4375 C -8.113281 48.4375 -8.179688 48.4375 -8.234375 48.4375 C -8.597656 48.394531 -8.878906 48.222656 -9.078125 47.921875 C -9.285156 47.628906 -9.363281 47.300781 -9.3125 46.9375 C -8.957031 44.351562 -8.484375 41.289062 -7.890625 37.75 C -7.296875 34.21875 -6.644531 30.398438 -5.9375 26.296875 C -5.238281 22.191406 -4.515625 17.984375 -3.765625 13.671875 C -3.023438 9.367188 -2.269531 5.128906 -1.5 0.953125 C -2.039062 1.128906 -2.582031 1.285156 -3.125 1.421875 C -3.488281 1.554688 -3.828125 1.535156 -4.140625 1.359375 C -4.460938 1.179688 -4.671875 0.910156 -4.765625 0.546875 C -4.847656 0.179688 -4.800781 -0.15625 -4.625 -0.46875 C -4.445312 -0.789062 -4.175781 -1 -3.8125 -1.09375 C -2.90625 -1.3125 -1.972656 -1.628906 -1.015625 -2.046875 C -0.796875 -3.265625 -0.570312 -4.460938 -0.34375 -5.640625 C -0.113281 -6.828125 0.0859375 -7.984375 0.265625 -9.109375 C 0.898438 -12.691406 1.488281 -15.988281 2.03125 -19 C 2.582031 -22.019531 3.023438 -24.515625 3.359375 -26.484375 C 3.703125 -28.460938 3.875 -29.585938 3.875 -29.859375 C 3.875 -30.679688 4.285156 -31.113281 5.109375 -31.15625 C 5.460938 -31.195312 5.773438 -31.09375 6.046875 -30.84375 C 6.328125 -30.601562 6.488281 -30.300781 6.53125 -29.9375 C 6.53125 -29.84375 6.492188 -29.523438 6.421875 -28.984375 C 6.359375 -28.441406 6.210938 -27.535156 5.984375 -26.265625 C 5.753906 -24.992188 5.425781 -23.15625 5 -20.75 C 4.570312 -18.34375 4.015625 -15.234375 3.328125 -11.421875 C 4.554688 -14.921875 5.75 -17.65625 6.90625 -19.625 C 8.0625 -21.601562 9.140625 -23.007812 10.140625 -23.84375 C 11.140625 -24.6875 12.007812 -25.160156 12.75 -25.265625 C 13.5 -25.378906 14.101562 -25.367188 14.5625 -25.234375 Z M 14.5625 -16.59375 C 15.007812 -18.363281 15.109375 -19.789062 14.859375 -20.875 C 14.609375 -21.96875 14.257812 -22.582031 13.8125 -22.71875 C 13.769531 -22.769531 13.703125 -22.796875 13.609375 -22.796875 C 13.242188 -22.796875 12.664062 -22.460938 11.875 -21.796875 C 11.082031 -21.140625 10.148438 -19.914062 9.078125 -18.125 C 8.015625 -16.332031 6.894531 -13.691406 5.71875 -10.203125 C 5.257812 -8.835938 4.710938 -6.929688 4.078125 -4.484375 C 6.523438 -5.984375 8.722656 -7.773438 10.671875 -9.859375 C 12.628906 -11.953125 13.925781 -14.195312 14.5625 -16.59375 Z M 14.5625 -16.59375 "/></g></g></g><g fill="#000000" fill-opacity="1"><g transform="translate(204.141582, 134.911051)"><g><path d="M 28.5 -15.109375 C 28.820312 -14.972656 29.039062 -14.734375 29.15625 -14.390625 C 29.269531 -14.046875 29.257812 -13.71875 29.125 -13.40625 C 28.257812 -11.632812 27.316406 -9.863281 26.296875 -8.09375 C 25.273438 -6.320312 24.207031 -4.695312 23.09375 -3.21875 C 21.988281 -1.75 20.84375 -0.578125 19.65625 0.296875 C 18.476562 1.179688 17.300781 1.625 16.125 1.625 C 15.894531 1.625 15.644531 1.601562 15.375 1.5625 C 12.332031 0.976562 10.453125 -3.101562 9.734375 -10.6875 C 8.960938 -9.632812 8.066406 -8.460938 7.046875 -7.171875 C 6.023438 -5.878906 4.945312 -4.597656 3.8125 -3.328125 C 3.625 -3.148438 3.328125 -2.867188 2.921875 -2.484375 C 2.515625 -2.097656 2.039062 -1.789062 1.5 -1.5625 C 0.957031 -1.332031 0.410156 -1.351562 -0.140625 -1.625 C -1.222656 -2.039062 -1.742188 -3.222656 -1.703125 -5.171875 C -1.703125 -6.304688 -1.484375 -7.710938 -1.046875 -9.390625 C -0.617188 -11.066406 -0.0078125 -12.753906 0.78125 -14.453125 C 1.570312 -16.160156 2.5 -17.671875 3.5625 -18.984375 C 4.632812 -20.296875 5.828125 -21.179688 7.140625 -21.640625 C 7.960938 -21.953125 8.960938 -22.003906 10.140625 -21.796875 C 11.316406 -21.597656 12.539062 -20.75 13.8125 -19.25 C 14.039062 -18.976562 14.140625 -18.660156 14.109375 -18.296875 C 14.085938 -17.929688 13.941406 -17.640625 13.671875 -17.421875 C 13.398438 -17.191406 13.082031 -17.085938 12.71875 -17.109375 C 12.351562 -17.128906 12.0625 -17.273438 11.84375 -17.546875 C 10.75 -18.816406 9.804688 -19.414062 9.015625 -19.34375 C 8.222656 -19.28125 7.550781 -19.046875 7 -18.640625 C 6.007812 -17.910156 5.101562 -16.863281 4.28125 -15.5 C 3.46875 -14.144531 2.785156 -12.71875 2.234375 -11.21875 C 1.691406 -9.726562 1.304688 -8.335938 1.078125 -7.046875 C 0.859375 -5.753906 0.796875 -4.8125 0.890625 -4.21875 C 1.023438 -4.3125 1.171875 -4.425781 1.328125 -4.5625 C 1.484375 -4.695312 1.65625 -4.878906 1.84375 -5.109375 C 3.195312 -6.597656 4.441406 -8.078125 5.578125 -9.546875 C 6.710938 -11.023438 7.6875 -12.332031 8.5 -13.46875 C 8.726562 -13.789062 8.941406 -14.097656 9.140625 -14.390625 C 9.347656 -14.679688 9.546875 -14.941406 9.734375 -15.171875 C 10.085938 -15.617188 10.5625 -15.753906 11.15625 -15.578125 C 11.75 -15.441406 12.066406 -15.054688 12.109375 -14.421875 C 12.242188 -11.472656 12.476562 -9.101562 12.8125 -7.3125 C 13.15625 -5.519531 13.53125 -4.179688 13.9375 -3.296875 C 14.351562 -2.410156 14.738281 -1.804688 15.09375 -1.484375 C 15.457031 -1.171875 15.734375 -1.015625 15.921875 -1.015625 C 16.785156 -0.835938 18.164062 -1.722656 20.0625 -3.671875 C 21.96875 -5.617188 24.191406 -9.222656 26.734375 -14.484375 C 26.921875 -14.847656 27.179688 -15.085938 27.515625 -15.203125 C 27.859375 -15.316406 28.1875 -15.285156 28.5 -15.109375 Z M 28.5 -15.109375 "/></g></g></g><g fill="#000000" fill-opacity="1"><g transform="translate(229.44584, 134.911051)"><g><path d="M 19.9375 -15.515625 C 20.25 -15.328125 20.4375 -15.050781 20.5 -14.6875 C 20.570312 -14.332031 20.519531 -13.992188 20.34375 -13.671875 C 19.476562 -12.316406 18.390625 -10.796875 17.078125 -9.109375 C 15.765625 -7.429688 14.335938 -5.832031 12.796875 -4.3125 C 11.253906 -2.800781 9.722656 -1.546875 8.203125 -0.546875 C 6.679688 0.453125 5.285156 0.953125 4.015625 0.953125 C 3.472656 0.953125 2.992188 0.863281 2.578125 0.6875 C 1.035156 0 0.1875 -1.644531 0.03125 -4.25 C -0.125 -6.851562 0.40625 -10.539062 1.625 -15.3125 C 1.71875 -15.664062 1.921875 -15.929688 2.234375 -16.109375 C 2.554688 -16.296875 2.878906 -16.347656 3.203125 -16.265625 C 3.554688 -16.171875 3.820312 -15.960938 4 -15.640625 C 4.1875 -15.328125 4.238281 -15.007812 4.15625 -14.6875 C 3.425781 -11.789062 2.96875 -9.488281 2.78125 -7.78125 C 2.601562 -6.082031 2.570312 -4.800781 2.6875 -3.9375 C 2.800781 -3.082031 2.96875 -2.503906 3.1875 -2.203125 C 3.414062 -1.910156 3.554688 -1.765625 3.609375 -1.765625 C 4.191406 -1.492188 5.050781 -1.6875 6.1875 -2.34375 C 7.320312 -3 8.59375 -3.972656 10 -5.265625 C 11.40625 -6.566406 12.820312 -8.066406 14.25 -9.765625 C 15.675781 -11.460938 16.957031 -13.242188 18.09375 -15.109375 C 18.320312 -15.421875 18.601562 -15.609375 18.9375 -15.671875 C 19.28125 -15.742188 19.613281 -15.691406 19.9375 -15.515625 Z M 3.875 -20.953125 C 2.96875 -20.992188 2.503906 -21.253906 2.484375 -21.734375 C 2.460938 -22.210938 2.664062 -22.703125 3.09375 -23.203125 C 3.519531 -23.703125 3.960938 -24.039062 4.421875 -24.21875 C 5.148438 -24.445312 5.679688 -24.398438 6.015625 -24.078125 C 6.359375 -23.765625 6.519531 -23.359375 6.5 -22.859375 C 6.476562 -22.359375 6.25 -21.90625 5.8125 -21.5 C 5.382812 -21.09375 4.738281 -20.910156 3.875 -20.953125 Z M 3.875 -20.953125 "/></g></g></g><g fill="#000000" fill-opacity="1"><g transform="translate(246.655453, 134.911051)"><g><path d="M 27.421875 -15.171875 C 27.734375 -14.992188 27.9375 -14.734375 28.03125 -14.390625 C 28.125 -14.046875 28.078125 -13.71875 27.890625 -13.40625 C 25.765625 -9.632812 23.847656 -6.738281 22.140625 -4.71875 C 20.441406 -2.707031 18.707031 -1.816406 16.9375 -2.046875 C 14.664062 -2.316406 12.875 -4.765625 11.5625 -9.390625 C 11.113281 -10.890625 10.71875 -11.96875 10.375 -12.625 C 10.03125 -13.28125 9.753906 -13.6875 9.546875 -13.84375 C 9.347656 -14 9.203125 -14.078125 9.109375 -14.078125 C 8.972656 -14.128906 8.703125 -13.992188 8.296875 -13.671875 C 7.890625 -13.359375 7.300781 -12.65625 6.53125 -11.5625 C 5.757812 -10.476562 4.804688 -8.789062 3.671875 -6.5 C 2.535156 -4.207031 1.15625 -1.066406 -0.46875 2.921875 C -0.695312 3.460938 -1.082031 3.734375 -1.625 3.734375 C -1.769531 3.734375 -1.882812 3.710938 -1.96875 3.671875 C -2.738281 3.492188 -3.082031 3.019531 -3 2.25 C -2.769531 0.382812 -2.359375 -1.769531 -1.765625 -4.21875 C -1.179688 -6.664062 -0.539062 -9.160156 0.15625 -11.703125 C 0.863281 -14.242188 1.515625 -16.507812 2.109375 -18.5 C 2.242188 -18.957031 2.367188 -19.378906 2.484375 -19.765625 C 2.597656 -20.148438 2.703125 -20.523438 2.796875 -20.890625 C 2.929688 -21.253906 3.15625 -21.515625 3.46875 -21.671875 C 3.789062 -21.828125 4.109375 -21.859375 4.421875 -21.765625 C 4.785156 -21.679688 5.054688 -21.476562 5.234375 -21.15625 C 5.421875 -20.84375 5.445312 -20.503906 5.3125 -20.140625 C 5.21875 -19.773438 5.113281 -19.398438 5 -19.015625 C 4.882812 -18.628906 4.757812 -18.207031 4.625 -17.75 C 4.3125 -16.570312 3.945312 -15.28125 3.53125 -13.875 C 3.125 -12.46875 2.71875 -11.039062 2.3125 -9.59375 C 3.851562 -12.5 5.164062 -14.425781 6.25 -15.375 C 7.34375 -16.320312 8.34375 -16.773438 9.25 -16.734375 C 10.519531 -16.640625 11.515625 -15.9375 12.234375 -14.625 C 12.960938 -13.3125 13.578125 -11.789062 14.078125 -10.0625 C 14.765625 -7.707031 15.398438 -6.210938 15.984375 -5.578125 C 16.578125 -4.941406 17.007812 -4.625 17.28125 -4.625 C 17.875 -4.53125 18.566406 -4.859375 19.359375 -5.609375 C 20.148438 -6.359375 20.941406 -7.3125 21.734375 -8.46875 C 22.523438 -9.625 23.269531 -10.769531 23.96875 -11.90625 C 24.675781 -13.039062 25.210938 -13.96875 25.578125 -14.6875 C 25.765625 -15.007812 26.035156 -15.210938 26.390625 -15.296875 C 26.753906 -15.390625 27.097656 -15.347656 27.421875 -15.171875 Z M 27.421875 -15.171875 "/></g></g></g><g clip-path="url(#586f672199)"><g fill="#000000" fill-opacity="1"><g transform="translate(270.939385, 134.911051)"><g><path d="M 31.21875 -15.109375 C 31.40625 -14.785156 31.460938 -14.441406 31.390625 -14.078125 C 31.328125 -13.710938 31.132812 -13.441406 30.8125 -13.265625 C 28.1875 -11.546875 25.191406 -9.539062 21.828125 -7.25 C 18.472656 -4.957031 15.050781 -2.3125 11.5625 0.6875 C 10.019531 9.9375 8.363281 17.878906 6.59375 24.515625 C 4.832031 31.160156 3.007812 36.648438 1.125 40.984375 C -0.757812 45.316406 -2.609375 48.613281 -4.421875 50.875 C -6.234375 53.144531 -7.957031 54.507812 -9.59375 54.96875 C -10.09375 55.101562 -10.566406 55.171875 -11.015625 55.171875 C -12.472656 55.171875 -13.722656 54.535156 -14.765625 53.265625 C -15.671875 52.085938 -16.304688 50.46875 -16.671875 48.40625 C -17.035156 46.34375 -17.101562 44.039062 -16.875 41.5 C -16.644531 39.5 -16.117188 36.96875 -15.296875 33.90625 C -14.484375 30.851562 -13.035156 27.441406 -10.953125 23.671875 C -8.179688 18.679688 -5.050781 14.164062 -1.5625 10.125 C 1.925781 6.09375 5.484375 2.488281 9.109375 -0.6875 C 9.429688 -2.539062 9.738281 -4.488281 10.03125 -6.53125 C 10.332031 -8.570312 10.617188 -10.660156 10.890625 -12.796875 C 10.253906 -11.835938 9.59375 -10.867188 8.90625 -9.890625 C 8.226562 -8.921875 7.550781 -7.984375 6.875 -7.078125 C 6.1875 -6.210938 5.421875 -5.40625 4.578125 -4.65625 C 3.742188 -3.90625 2.875 -3.671875 1.96875 -3.953125 C 1.5625 -4.035156 1.164062 -4.289062 0.78125 -4.71875 C 0.394531 -5.15625 0.15625 -5.894531 0.0625 -6.9375 C -0.0195312 -8.070312 0.101562 -9.535156 0.4375 -11.328125 C 0.78125 -13.117188 1.3125 -14.96875 2.03125 -16.875 C 2.757812 -18.78125 3.664062 -20.515625 4.75 -22.078125 C 5.84375 -23.640625 7.070312 -24.757812 8.4375 -25.4375 C 9.25 -25.851562 10.234375 -26.070312 11.390625 -26.09375 C 12.546875 -26.113281 13.804688 -25.507812 15.171875 -24.28125 C 15.441406 -24.007812 15.585938 -23.703125 15.609375 -23.359375 C 15.628906 -23.023438 15.503906 -22.722656 15.234375 -22.453125 C 15.015625 -22.179688 14.722656 -22.03125 14.359375 -22 C 13.992188 -21.976562 13.675781 -22.082031 13.40625 -22.3125 C 11.769531 -23.8125 10.113281 -23.8125 8.4375 -22.3125 C 7.394531 -21.363281 6.472656 -20.117188 5.671875 -18.578125 C 4.878906 -17.035156 4.234375 -15.445312 3.734375 -13.8125 C 3.242188 -12.175781 2.914062 -10.6875 2.75 -9.34375 C 2.59375 -8.007812 2.609375 -7.09375 2.796875 -6.59375 C 2.929688 -6.6875 3.164062 -6.878906 3.5 -7.171875 C 3.84375 -7.472656 4.265625 -7.960938 4.765625 -8.640625 C 5.671875 -9.816406 6.585938 -11.082031 7.515625 -12.4375 C 8.441406 -13.800781 9.289062 -15.070312 10.0625 -16.25 C 10.832031 -17.4375 11.398438 -18.367188 11.765625 -19.046875 C 12.128906 -19.640625 12.648438 -19.820312 13.328125 -19.59375 C 14.015625 -19.414062 14.3125 -18.960938 14.21875 -18.234375 C 13.90625 -15.554688 13.578125 -12.96875 13.234375 -10.46875 C 12.890625 -7.976562 12.535156 -5.578125 12.171875 -3.265625 C 15.347656 -5.847656 18.421875 -8.132812 21.390625 -10.125 C 24.367188 -12.125 27.035156 -13.894531 29.390625 -15.4375 C 29.703125 -15.664062 30.03125 -15.734375 30.375 -15.640625 C 30.71875 -15.554688 31 -15.378906 31.21875 -15.109375 Z M -10.34375 52.453125 C -9.25 52.128906 -7.953125 51.0625 -6.453125 49.25 C -4.960938 47.4375 -3.363281 44.644531 -1.65625 40.875 C 0.0390625 37.113281 1.757812 32.171875 3.5 26.046875 C 5.25 19.929688 6.894531 12.425781 8.4375 3.53125 C 5.300781 6.394531 2.257812 9.601562 -0.6875 13.15625 C -3.632812 16.71875 -6.285156 20.65625 -8.640625 24.96875 C -10.992188 29.226562 -12.585938 33.179688 -13.421875 36.828125 C -14.265625 40.484375 -14.5625 43.59375 -14.3125 46.15625 C -14.070312 48.71875 -13.539062 50.546875 -12.71875 51.640625 C -12.039062 52.453125 -11.25 52.722656 -10.34375 52.453125 Z M -10.34375 52.453125 "/></g></g></g></g></g></g></svg>